<svg xmlns="http://www.w3.org/2000/svg" width="591.347" height="246.47" viewBox="0 0 591.347 246.47">
  <g id="Group_2002" data-name="Group 2002" transform="translate(-9459 1198)">
    <g id="popcorn_logo-24" data-name="popcorn logo-24" transform="translate(9376.39 -1288.55)">
      <path id="Path_11825" data-name="Path 11825" d="M138.63,130.13q12.36,0,22.93-10.68h.52q2.715,10.68,14.55,10.68h1.47q4.185,0,11.73-2.93,15.6-9.63,15.6-18.95v-1.99q0-10.365-14.66-12.67H189.3q-11.625,0-22.82,11.2-2.1-11.205-15.6-11.2a37.882,37.882,0,0,0-5.44.52q-22.41,8.685-22.41,22.41v1.99Q123.03,128.245,138.63,130.13Z" fill="#ff6f00"/>
      <path id="Path_11826" data-name="Path 11826" d="M235.48,305.18h-.84q-7.965,0-13.4,7.54h-.42v-1.26q-3.345-11.31-13.4-11.31h-3.77q-18.435,6.915-18.43,22.2v.84Q186.8,337,198.62,337.01h1.26q9.315,0,16.33-9.63h.84v1.26q3.135,8.37,11.31,8.38h2.93q15.915-5.76,15.91-18.85v-2.09a7,7,0,0,0-.84-3.35Q243.225,305.17,235.48,305.18Z" fill="#ff6f00"/>
      <path id="Path_11827" data-name="Path 11827" d="M357.34,185.61h-7.96q-15.6,3.135-29.73,15.08-29.73,29.835-29.73,60.72a45.453,45.453,0,0,0,1.26,9.63q-3.45,5.025-10.47,5.03h-.42a14.743,14.743,0,0,1-3.77-.42q-6.615,0-16.82-9.4a119.215,119.215,0,0,0,8.86-18.03q6.39-19.26,23.45-40.2v-2.09q0-1.785-14.66-2.93-21.99,0-32.67,3.77-4.71,0-5.44,11.73-6.585,46.485-23.06,55.02c-3.35.31-5.66.47-6.88.47a51.56,51.56,0,0,1-9.74-.94q-20.94-7.02-20.94-28.27,0-7.32,4.92-21.99a274.483,274.483,0,0,1,31.2-65.33q17.49-25.02,29.21-30.68v-.94a60.494,60.494,0,0,0-19.47-3.46q-20.415,0-43.45,18.01-10.47-7.74-20.94-7.75-28.485,0-54.55,31.2Q82.6,195.985,82.61,223.73v.52a54.3,54.3,0,0,0,.42,7.75q5.865,35.175,33.19,35.18,18.84,0,36.54-13.71v.52a48.2,48.2,0,0,0,2.93,16.12q11.205,25.755,42.4,25.75,4.29-.42,5.34-.42c.1-.02.2-.06.3-.08,1.47.11,2.97.19,4.51.19h4.61q21.21,0,36.45-15.68,11.025,16.29,31.4,16.31h3.77a44.718,44.718,0,0,0,18.85-4.19q8.055,4.185,13.4,4.19h3.77q13.185,0,30.99-13.82,31.41-28.785,31.41-63.66a42.034,42.034,0,0,0-7.12-23.03Q365.51,185.605,357.34,185.61Zm-195.78-9.63q0,13.185-10.26,35.6-20.205,38.01-32.67,38-5.34,0-5.34-8.79v-.42q0-21.255,20-53.71,12.045-18.525,22.41-20.94,5.865,0,5.86,8.79v1.47Zm180.71,77.06q-13.1,23.76-22.61,25.55h-.42q-5.025,0-5.03-7.54,0-11.835,8.79-29.32,12.15-23.34,22.2-25.96h2.51q3.345,2,3.35,8.38Q351.06,234.29,342.27,253.04Z" fill="#fff"/>
      <g id="Group_2001" data-name="Group 2001">
        <path id="Path_11828" data-name="Path 11828" d="M669.49,177.07c-5.6-12.65-15.13-21.65-27.96-26.98-1.46-.61-1.94-1.3-1.67-2.86,1.55-9.07.89-17.96-2.92-26.4a32.978,32.978,0,0,0-12.66-14.91,29.061,29.061,0,0,0-8.25-5.85,33.817,33.817,0,0,0-8.46-3.68,60.588,60.588,0,0,0-40.29,1.39,48.9,48.9,0,0,0-27.49,24.56c-1.52,3-3.2,4.86-6.78,4.1a7.039,7.039,0,0,0-1.64.09c-3.83.16-7.68.16-11.42,1.2-1.47.41-2.23,1.12-1.12,2.66.34.47.85,1.03-.03,1.53-.81.46-1.14-.13-1.46-.65a3.54,3.54,0,0,1-.72-1.47c-.11-1.77-.99-1.65-2.38-1.35a117.754,117.754,0,0,0-22.4,7,85.524,85.524,0,0,0-19.99,12.09,63.913,63.913,0,0,0-14.65,16.8,53.541,53.541,0,0,0-7.95,27.24c-.15,14.2,5.18,26.39,13.6,37.46a2.492,2.492,0,0,1,.45,2.8,45.991,45.991,0,0,0-3.36,15.71,50.417,50.417,0,0,0,5.41,24.15c.08-.07.17-.14.25-.22q-.84-8.055-1.26-19.68.315-16.65,8.38-36.85,12.45-23.445,18.84-23.45c0-.49,1.68-.77,5.03-.84q10.47,0,23.03,7.54a4.883,4.883,0,0,1,.84,2.51q0,2.415-10.89,12.14-18.21,22.3-23.87,57.37v.84c.01.12.03.24.04.36a.378.378,0,0,0,.17.06c0,.36-.02.72-.03,1.07q1.17,9.165,3.59,10.23,7.86,0,20.52-36.02,17.805-44.595,22.2-49.84,7.44-8.37,16.33-8.38,21.78,2.82,21.78,11.31,0,1.155-12.98,13.82-9.21,12.465-12.98,23.87-8.37,21.15-8.38,29.73v3.35c0,5.51,1.26,8.73,3.77,9.63q8.475,0,18.01-31.41,14.13-38.73,20.1-49.42,6.7-8.79,14.66-8.79H595q5.13,0,20.52,6.7a5.835,5.835,0,0,1,1.26,3.77v.84q-.105.63-10.05,10.05-7.65,6.81-25.13,52.35-11.415,21.78-33.92,29.73h-6.7q-9.42,0-21.36-12.98-15.915,15.075-25.13,15.08a31.092,31.092,0,0,1-9.14-1.24,73.961,73.961,0,0,0,16.96,9.42,75.358,75.358,0,0,0,36.86,4.95,71.6,71.6,0,0,0,20.43-5.46,82.049,82.049,0,0,0,15.66-8.92,91.757,91.757,0,0,0,17.66-16.65,59.188,59.188,0,0,0,10.94-19.98,1.384,1.384,0,0,1,1.73-1.18,40.369,40.369,0,0,0,4.92.07,82.034,82.034,0,0,0,28.47-5.8,52.757,52.757,0,0,0,21.99-15.71,57.214,57.214,0,0,0,9.98-19.15C675.18,203.21,675.17,189.89,669.49,177.07Z" fill="#ff6f00"/>
        <path id="Path_11829" data-name="Path 11829" d="M475.39,286.03c-.91-.98-1.61-2.29-2.67-3.24-.36-.2-.74-.51-.49-.91.21-.34.57-.04.8.19.89-.25,2.13,1.31,2.5.08.35-1.16-1.37-1.06-2.16-1.28-2.65-.74-4.22-2.41-5.62-4.75-.87-1.46-1.68-2.95-2.41-4.44a14.61,14.61,0,0,1-3.37,2.3h-.36a40.272,40.272,0,0,1-12.56-2.09q-18.435-7.635-18.43-31.83v-3.35q0-16.125,9.63-44.81a208.376,208.376,0,0,1,22.61-46.48q21.885-33.3,47.74-48.58V95.58q-14.13-5.025-25.96-5.03-33.09,0-56.96,32.67-30.57,48.69-30.57,101.35v.84a117.062,117.062,0,0,0,2.51,24.71q11.73,46.065,56.12,46.07a90.653,90.653,0,0,0,17.17-2.09c.77-.53,1.49-1.07,2.19-1.62,1.01-.4,2.03-.83,3.04-1.31a20.526,20.526,0,0,0,7.19,3.79A76.027,76.027,0,0,1,475.39,286.03Z" fill="#96dc9d"/>
      </g>
      <path id="Path_11830" data-name="Path 11830" d="M561.6,168.03v.84q1.575,13.815,13.4,13.82h3.77q18.42-6.915,18.43-22.2v-3.35q-3.345-11.31-13.4-11.31h-3.77Q561.6,152.745,561.6,168.03Z" fill="#fff"/>
      <path id="Path_11831" data-name="Path 11831" d="M558.67,149.6h3.77q18.42-6.915,18.43-22.2v-3.35q-3.345-11.31-13.4-11.31H563.7q-18.435,6.915-18.43,22.2v.84Q546.83,149.6,558.67,149.6Z" fill="#fff"/>
      <path id="Path_11832" data-name="Path 11832" d="M615.52,197.34q-15.39-6.705-20.52-6.7h-2.51q-7.95,0-14.66,8.79-5.97,10.68-20.1,49.42-9.525,31.41-18.01,31.41-3.765-1.365-3.77-9.63v-3.35q0-8.58,8.38-29.73,3.765-11.415,12.98-23.87,12.975-12.66,12.98-13.82,0-8.475-21.78-11.31-8.895,0-16.33,8.38-4.395,5.235-22.2,49.84-12.675,36.015-20.52,36.02-2.43-1.065-3.59-10.23c.01-.36.03-.71.03-1.07-.07,0-.11-.04-.17-.06-.01-.12-.03-.24-.04-.36v-.84q5.655-35.07,23.87-57.37,10.89-9.735,10.89-12.14a4.854,4.854,0,0,0-.84-2.51q-12.57-7.545-23.03-7.54c-3.35.07-5.03.35-5.03.84q-6.39,0-18.84,23.45-8.07,20.205-8.38,36.85.42,11.625,1.26,19.68a14.035,14.035,0,0,1-3.62,2.51h-.36a40.272,40.272,0,0,1-12.56-2.09q-18.435-7.635-18.43-31.83v-3.35q0-16.125,9.63-44.81a208.376,208.376,0,0,1,22.61-46.48q21.885-33.3,47.74-48.58V95.6q-14.13-5.025-25.96-5.03-33.09,0-56.96,32.67-30.57,48.69-30.57,101.35v.84a117.062,117.062,0,0,0,2.51,24.71q11.73,46.065,56.12,46.07a90.653,90.653,0,0,0,17.17-2.09c.77-.53,1.9-.67,2.6-1.22,1.01-.4,1.62-1.23,2.63-1.71q6.075,5.025,16.33,5.03,9.21,0,25.13-15.08,11.94,12.99,21.36,12.98h6.7q22.515-7.95,33.92-29.73,17.49-45.54,25.13-52.35,9.945-9.42,10.05-10.05v-.84A5.747,5.747,0,0,0,615.52,197.34Z" fill="#fff"/>
      <path id="Path_11833" data-name="Path 11833" d="M519.62,281.1q11.94,12.99,21.36,12.98h6.7q22.515-7.95,33.92-29.73,17.49-45.54,25.13-52.35,9.945-9.42,10.05-10.05v-.84a5.835,5.835,0,0,0-1.26-3.77q-15.39-6.705-20.52-6.7h-2.51q-7.95,0-14.66,8.79-5.97,10.68-20.1,49.42-9.525,31.41-18.01,31.41-3.765-1.365-3.77-9.63v-3.35q0-8.58,8.38-29.73,3.765-11.415,12.98-23.87,12.975-12.66,12.98-13.82,0-8.475-21.78-11.31-8.895,0-16.33,8.38-4.395,5.235-22.2,49.84-12.675,36.015-20.52,36.02-2.43-1.065-3.59-10.23c.01-.36.03-.71.03-1.07-.07,0-.11-.04-.17-.06-.01-.12-.03-.24-.04-.36v-.84q5.655-35.07,23.87-57.37,10.89-9.735,10.89-12.14a4.854,4.854,0,0,0-.84-2.51q-12.57-7.545-23.03-7.54c-3.35.07-5.03.35-5.03.84q-6.39,0-18.84,23.45-8.07,20.205-8.38,36.85.42,11.625,1.26,19.68c-.08.08-.17.14-.25.22q1.11,2.25,2.41,4.44a48.68,48.68,0,0,0,4.96,6.66,41.24,41.24,0,0,1,2.67,3.24,73.4,73.4,0,0,0,9.96,8.91,31.427,31.427,0,0,0,9.14,1.24Q503.705,296.155,519.62,281.1Z" fill="#fff"/>
      <path id="Path_11834" data-name="Path 11834" d="M530.61,182.26h3.77q18.42-6.915,18.43-22.2v-3.35q-3.345-11.31-13.4-11.31h-3.77q-18.435,6.915-18.43,22.2v.84Q518.785,182.27,530.61,182.26Z" fill="#fff"/>
    </g>
  </g>
</svg>
