<?xml version="1.0" encoding="utf-8"?>
<!-- Generator: Adobe Illustrator 24.3.0, SVG Export Plug-In . SVG Version: 6.00 Build 0)  -->
<svg version="1.1" id="Layer_1" xmlns="http://www.w3.org/2000/svg" xmlns:xlink="http://www.w3.org/1999/xlink" x="0px" y="0px"
	 viewBox="0 0 726.16 392.21" style="enable-background:new 0 0 726.16 392.21;" xml:space="preserve">
<style type="text/css">
	.st0{fill:#FEC513;stroke:#FFFFFF;stroke-miterlimit:10;}
	.st1{fill:#2B1A56;}
	.st2{fill:#FFFFFF;}
	.st3{fill:#FEC513;stroke:#FFFFFF;stroke-width:2;stroke-linecap:round;stroke-linejoin:round;stroke-miterlimit:10;}
	.st4{fill:#FEC513;}
	.st5{display:none;}
	.st6{display:inline;}
	.st7{fill:#FECB02;}
	.st8{fill:#F10E02;}
	.st9{fill:#96DC9D;}
	.st10{fill:#8A41FF;}
	.st11{fill:#63E2F5;}
	.st12{fill:#5BDBF6;}
	.st13{fill:#F74076;}
	.st14{fill:#F13D72;}
	.st15{fill:#24E2D0;}
	.st16{fill:url(#SVGID_1_);}
	.st17{fill:url(#SVGID_2_);}
	.st18{fill:url(#SVGID_3_);}
	.st19{fill:url(#SVGID_4_);}
	.st20{fill:url(#SVGID_5_);}
	.st21{fill:url(#SVGID_6_);}
	.st22{fill:url(#SVGID_7_);}
	.st23{fill:#F63F76;}
	.st24{fill:#6714C7;}
	.st25{fill:none;stroke:#FFFFFF;stroke-width:16.151;stroke-miterlimit:10;}
	.st26{fill:none;stroke:#FFFFFF;stroke-width:11.1501;stroke-miterlimit:10;}
	.st27{fill:#FFFFFF;stroke:#FEC513;stroke-miterlimit:10;}
	.st28{fill:#282828;}
	.st29{fill:none;stroke:#FEC513;stroke-width:2;stroke-linecap:round;stroke-linejoin:bevel;stroke-miterlimit:10;}
	.st30{fill:#F2B408;stroke:#FFFFFF;stroke-miterlimit:10;}
	.st31{fill:#FF4240;}
	.st32{opacity:0.35;}
	.st33{clip-path:url(#SVGID_9_);}
	.st34{fill-rule:evenodd;clip-rule:evenodd;fill:#FFFFFF;}
	.st35{fill-rule:evenodd;clip-rule:evenodd;fill:#FF4240;}
	.st36{fill:none;stroke:#FFFFFF;stroke-width:7;stroke-miterlimit:10;}
	.st37{clip-path:url(#SVGID_11_);}
	.st38{fill-rule:evenodd;clip-rule:evenodd;fill:#F2B408;stroke:#FFFFFF;stroke-miterlimit:10;}
	.st39{clip-path:url(#SVGID_13_);}
	.st40{clip-path:url(#SVGID_15_);}
	.st41{fill:#FFFFFF;stroke:#344154;stroke-width:3;stroke-linecap:round;stroke-linejoin:round;stroke-miterlimit:10;}
	.st42{fill:none;stroke:#344154;stroke-width:3;stroke-linecap:round;stroke-linejoin:round;stroke-miterlimit:10;}
	.st43{clip-path:url(#SVGID_17_);}
	.st44{clip-path:url(#SVGID_19_);}
	.st45{clip-path:url(#SVGID_21_);}
	.st46{fill:none;stroke:#344154;stroke-width:3;stroke-miterlimit:10;}
	.st47{fill:none;stroke:#344154;stroke-width:3;stroke-linecap:round;stroke-miterlimit:10;}
	.st48{fill:none;stroke:#344154;stroke-width:3;stroke-linecap:round;stroke-linejoin:round;}
	.st49{fill:none;stroke:#344154;stroke-width:3;stroke-linecap:round;stroke-linejoin:round;stroke-dasharray:0,5.3033;}
	.st50{clip-path:url(#SVGID_23_);}
	.st51{clip-path:url(#SVGID_25_);}
	.st52{clip-path:url(#SVGID_27_);}
	.st53{clip-path:url(#SVGID_29_);}
	.st54{clip-path:url(#SVGID_31_);}
	.st55{clip-path:url(#SVGID_33_);}
	.st56{clip-path:url(#SVGID_35_);}
	.st57{clip-path:url(#SVGID_37_);}
	.st58{clip-path:url(#SVGID_39_);}
	.st59{clip-path:url(#SVGID_41_);}
</style>
<path class="st7" d="M138.63,130.13c8.24,0,15.88-3.56,22.93-10.68h0.52c1.81,7.12,6.66,10.68,14.55,10.68h1.47
	c2.79,0,6.7-0.98,11.73-2.93c10.4-6.42,15.6-12.74,15.6-18.95v-1.99c0-6.91-4.89-11.13-14.66-12.67h-1.47
	c-7.75,0-15.36,3.73-22.82,11.2c-1.4-7.47-6.6-11.2-15.6-11.2c-1.4,0-3.21,0.18-5.44,0.52c-14.94,5.79-22.41,13.26-22.41,22.41v1.99
	C123.03,125,128.23,128.87,138.63,130.13z"/>
<path class="st7" d="M235.48,305.18h-0.84c-5.31,0-9.77,2.51-13.4,7.54h-0.42v-1.26c-2.23-7.54-6.7-11.31-13.4-11.31h-3.77
	c-12.29,4.61-18.43,12-18.43,22.2v0.84c1.05,9.21,5.51,13.82,13.4,13.82h1.26c6.21,0,11.66-3.21,16.33-9.63h0.84v1.26
	c2.09,5.58,5.86,8.38,11.31,8.38h2.93c10.61-3.84,15.91-10.12,15.91-18.85v-2.09c0-1.19-0.28-2.3-0.84-3.35
	C244.27,307.69,240.64,305.18,235.48,305.18z"/>
<path class="st8" d="M357.34,185.61h-7.96c-10.4,2.09-20.31,7.12-29.73,15.08c-19.82,19.89-29.73,40.13-29.73,60.72
	c0,2.65,0.42,5.86,1.26,9.63c-2.3,3.35-5.79,5.03-10.47,5.03h-0.42c-1.47,0-2.72-0.14-3.77-0.42c-4.41,0-10.02-3.14-16.82-9.4
	c3.23-5.29,6.18-11.3,8.86-18.03c4.26-12.84,12.07-26.24,23.45-40.2v-2.09c0-1.19-4.89-2.16-14.66-2.93
	c-14.66,0-25.55,1.26-32.67,3.77c-3.14,0-4.96,3.91-5.44,11.73c-4.39,30.99-12.07,49.32-23.06,55.02c-3.35,0.31-5.66,0.47-6.88,0.47
	c-3.21,0-6.46-0.31-9.74-0.94c-13.96-4.68-20.94-14.1-20.94-28.27c0-4.88,1.64-12.21,4.92-21.99c7.96-24.08,18.36-45.86,31.2-65.33
	c11.66-16.68,21.39-26.91,29.21-30.68v-0.94c-6.77-2.3-13.26-3.46-19.47-3.46c-13.61,0-28.09,6-43.45,18.01
	c-6.98-5.16-13.96-7.75-20.94-7.75c-18.99,0-37.17,10.4-54.55,31.2c-15.29,21.43-22.93,41.39-22.93,59.89v0.52
	c0,3.35,0.14,5.93,0.42,7.75c3.91,23.45,14.97,35.18,33.19,35.18c12.56,0,24.74-4.57,36.54-13.71v0.52c0,5.23,0.98,10.61,2.93,16.12
	c7.47,17.17,21.6,25.75,42.4,25.75c2.86-0.28,4.64-0.42,5.34-0.42c0.1-0.02,0.2-0.06,0.3-0.08c1.47,0.11,2.97,0.19,4.51,0.19h4.61
	c14.14,0,26.28-5.23,36.45-15.68c7.35,10.86,17.81,16.31,31.4,16.31h3.77c6.49,0,12.77-1.4,18.85-4.19
	c5.37,2.79,9.84,4.19,13.4,4.19h3.77c8.79,0,19.12-4.61,30.99-13.82c20.94-19.19,31.41-40.41,31.41-63.66
	c0-7.96-2.37-15.63-7.12-23.03C368.93,188.96,362.79,185.61,357.34,185.61z M161.56,175.98c0,8.79-3.42,20.66-10.26,35.6
	c-13.47,25.34-24.36,38-32.67,38c-3.56,0-5.34-2.93-5.34-8.79v-0.42c0-14.17,6.67-32.07,20-53.71c8.03-12.35,15.5-19.33,22.41-20.94
	c3.91,0,5.86,2.93,5.86,8.79V175.98z M342.27,253.04c-8.73,15.84-16.26,24.36-22.61,25.55h-0.42c-3.35,0-5.03-2.51-5.03-7.54
	c0-7.89,2.93-17.66,8.79-29.32c8.1-15.56,15.5-24.22,22.2-25.96h2.51c2.23,1.33,3.35,4.12,3.35,8.38
	C351.06,230.91,348.13,240.55,342.27,253.04z"/>
<g>
	<path class="st7" d="M669.49,177.07c-5.6-12.65-15.13-21.65-27.96-26.98c-1.46-0.61-1.94-1.3-1.67-2.86
		c1.55-9.07,0.89-17.96-2.92-26.4c-2.77-6.13-6.84-11.3-12.66-14.91c-2.4-2.44-5.16-4.37-8.25-5.85c-2.62-1.69-5.52-2.77-8.46-3.68
		c-13.58-4.21-26.97-3.6-40.29,1.39c-12.41,4.65-21.57,12.81-27.49,24.56c-1.52,3-3.2,4.86-6.78,4.1c-0.52-0.11-1.09,0.07-1.64,0.09
		c-3.83,0.16-7.68,0.16-11.42,1.2c-1.47,0.41-2.23,1.12-1.12,2.66c0.34,0.47,0.85,1.03-0.03,1.53c-0.81,0.46-1.14-0.13-1.46-0.65
		c-0.29-0.46-0.69-0.96-0.72-1.47c-0.11-1.77-0.99-1.65-2.38-1.35c-7.68,1.65-15.16,3.85-22.4,7c-7.23,3.15-13.93,7.15-19.99,12.09
		c-5.81,4.73-10.77,10.31-14.65,16.8c-5.01,8.4-7.84,17.41-7.95,27.24c-0.15,14.2,5.18,26.39,13.6,37.46
		c0.68,0.89,0.92,1.63,0.45,2.8c-2,5.04-3.2,10.26-3.36,15.71c-0.26,8.63,1.7,16.61,5.41,24.15c0.08-0.07,0.17-0.14,0.25-0.22
		c-0.56-5.37-0.98-11.94-1.26-19.68c0.21-11.1,3-23.38,8.38-36.85c8.3-15.63,14.59-23.45,18.84-23.45c0-0.49,1.68-0.77,5.03-0.84
		c6.98,0,14.66,2.51,23.03,7.54c0.56,0.91,0.84,1.75,0.84,2.51c0,1.61-3.63,5.65-10.89,12.14c-12.14,14.87-20.1,33.99-23.87,57.37
		v0.84c0.01,0.12,0.03,0.24,0.04,0.36c0.05,0.02,0.09,0.06,0.17,0.06c0,0.36-0.02,0.72-0.03,1.07c0.78,6.11,1.97,9.52,3.59,10.23
		c5.24,0,12.07-12,20.52-36.02c11.87-29.73,19.26-46.34,22.2-49.84c4.96-5.58,10.4-8.38,16.33-8.38
		c14.52,1.88,21.78,5.65,21.78,11.31c0,0.77-4.33,5.38-12.98,13.82c-6.14,8.31-10.47,16.26-12.98,23.87
		c-5.58,14.1-8.38,24.01-8.38,29.73v3.35c0,5.51,1.26,8.73,3.77,9.63c5.65,0,11.66-10.47,18.01-31.41
		c9.42-25.82,16.12-42.3,20.1-49.42c4.47-5.86,9.35-8.79,14.66-8.79H595c3.42,0,10.26,2.23,20.52,6.7c0.84,1.05,1.26,2.3,1.26,3.77
		v0.84c-0.07,0.42-3.42,3.77-10.05,10.05c-5.1,4.54-13.47,21.99-25.13,52.35c-7.61,14.52-18.92,24.43-33.92,29.73h-6.7
		c-6.28,0-13.4-4.33-21.36-12.98c-10.61,10.05-18.99,15.08-25.13,15.08c-3.39,0-6.44-0.41-9.14-1.24
		c5.17,3.84,10.82,6.99,16.96,9.42c11.88,4.71,24.16,6.4,36.86,4.95c7.08-0.81,13.9-2.63,20.43-5.46c5.53-2.4,10.75-5.35,15.66-8.92
		c6.62-4.8,12.54-10.31,17.66-16.65c4.84-5.99,8.68-12.56,10.94-19.98c0.28-0.92,0.68-1.28,1.73-1.18c1.63,0.16,3.28,0.11,4.92,0.07
		c9.84-0.21,19.31-2.2,28.47-5.8c8.65-3.4,16.08-8.5,21.99-15.71c4.66-5.69,7.76-12.21,9.98-19.15
		C675.18,203.21,675.17,189.89,669.49,177.07z"/>
	<path class="st9" d="M475.39,286.03c-0.91-0.98-1.61-2.29-2.67-3.24c-0.36-0.2-0.74-0.51-0.49-0.91c0.21-0.34,0.57-0.04,0.8,0.19
		c0.89-0.25,2.13,1.31,2.5,0.08c0.35-1.16-1.37-1.06-2.16-1.28c-2.65-0.74-4.22-2.41-5.62-4.75c-0.87-1.46-1.68-2.95-2.41-4.44
		c-1.06,0.96-2.19,1.72-3.37,2.3h-0.36c-4.12,0-8.31-0.7-12.56-2.09c-12.29-5.09-18.43-15.7-18.43-31.83v-3.35
		c0-10.75,3.21-25.69,9.63-44.81c6-17.24,13.54-32.73,22.61-46.48c14.59-22.2,30.5-38.39,47.74-48.58v-1.26
		c-9.42-3.35-18.08-5.03-25.96-5.03c-22.06,0-41.04,10.89-56.96,32.67c-20.38,32.46-30.57,66.24-30.57,101.35v0.84
		c0,8.73,0.84,16.96,2.51,24.71c7.82,30.71,26.52,46.07,56.12,46.07c6.84-0.28,12.56-0.98,17.17-2.09c0.77-0.53,1.49-1.07,2.19-1.62
		c1.01-0.4,2.03-0.83,3.04-1.31c2.04,1.69,4.44,2.95,7.19,3.79C481.8,292.3,478.47,289.34,475.39,286.03z"/>
</g>
<path class="st2" d="M561.6,168.03v0.84c1.05,9.21,5.51,13.82,13.4,13.82h3.77c12.28-4.61,18.43-12,18.43-22.2v-3.35
	c-2.23-7.54-6.7-11.31-13.4-11.31h-3.77C567.74,150.44,561.6,157.84,561.6,168.03z"/>
<path class="st2" d="M558.67,149.6h3.77c12.28-4.61,18.43-12,18.43-22.2v-3.35c-2.23-7.54-6.7-11.31-13.4-11.31h-3.77
	c-12.29,4.61-18.43,12.01-18.43,22.2v0.84C546.31,144.99,550.78,149.6,558.67,149.6z"/>
<path class="st8" d="M615.52,197.34c-10.26-4.47-17.1-6.7-20.52-6.7h-2.51c-5.3,0-10.19,2.93-14.66,8.79
	c-3.98,7.12-10.68,23.59-20.1,49.42c-6.35,20.94-12.35,31.41-18.01,31.41c-2.51-0.91-3.77-4.12-3.77-9.63v-3.35
	c0-5.72,2.79-15.63,8.38-29.73c2.51-7.61,6.84-15.56,12.98-23.87c8.65-8.44,12.98-13.05,12.98-13.82c0-5.65-7.26-9.42-21.78-11.31
	c-5.93,0-11.38,2.79-16.33,8.38c-2.93,3.49-10.33,20.1-22.2,49.84c-8.45,24.01-15.29,36.02-20.52,36.02
	c-1.62-0.71-2.81-4.12-3.59-10.23c0.01-0.36,0.03-0.71,0.03-1.07c-0.07,0-0.11-0.04-0.17-0.06c-0.01-0.12-0.03-0.24-0.04-0.36v-0.84
	c3.77-23.38,11.73-42.51,23.87-57.37c7.26-6.49,10.89-10.54,10.89-12.14c0-0.77-0.28-1.6-0.84-2.51
	c-8.38-5.03-16.05-7.54-23.03-7.54c-3.35,0.07-5.03,0.35-5.03,0.84c-4.26,0-10.54,7.82-18.84,23.45
	c-5.38,13.47-8.17,25.76-8.38,36.85c0.28,7.75,0.7,14.31,1.26,19.68c-1.13,1.07-2.34,1.9-3.62,2.51h-0.36
	c-4.12,0-8.31-0.7-12.56-2.09c-12.29-5.09-18.43-15.7-18.43-31.83v-3.35c0-10.75,3.21-25.69,9.63-44.81
	c6-17.24,13.54-32.73,22.61-46.48c14.59-22.2,30.5-38.39,47.74-48.58v-1.26c-9.42-3.35-18.08-5.03-25.96-5.03
	c-22.06,0-41.04,10.89-56.96,32.67c-20.38,32.46-30.57,66.24-30.57,101.35v0.84c0,8.73,0.84,16.96,2.51,24.71
	c7.82,30.71,26.52,46.07,56.12,46.07c6.84-0.28,12.56-0.98,17.17-2.09c0.77-0.53,1.9-0.67,2.6-1.22c1.01-0.4,1.62-1.23,2.63-1.71
	c4.05,3.35,9.49,5.03,16.33,5.03c6.14,0,14.52-5.03,25.13-15.08c7.96,8.66,15.08,12.98,21.36,12.98h6.7
	c15.01-5.3,26.31-15.22,33.92-29.73c11.66-30.36,20.03-47.81,25.13-52.35c6.63-6.28,9.98-9.63,10.05-10.05v-0.84
	C616.78,199.64,616.36,198.39,615.52,197.34z"/>
<path class="st2" d="M519.62,281.1c7.96,8.66,15.08,12.98,21.36,12.98h6.7c15.01-5.3,26.31-15.22,33.92-29.73
	c11.66-30.36,20.03-47.81,25.13-52.35c6.63-6.28,9.98-9.63,10.05-10.05v-0.84c0-1.47-0.42-2.72-1.26-3.77
	c-10.26-4.47-17.1-6.7-20.52-6.7h-2.51c-5.3,0-10.19,2.93-14.66,8.79c-3.98,7.12-10.68,23.59-20.1,49.42
	c-6.35,20.94-12.35,31.41-18.01,31.41c-2.51-0.91-3.77-4.12-3.77-9.63v-3.35c0-5.72,2.79-15.63,8.38-29.73
	c2.51-7.61,6.84-15.56,12.98-23.87c8.65-8.44,12.98-13.05,12.98-13.82c0-5.65-7.26-9.42-21.78-11.31c-5.93,0-11.38,2.79-16.33,8.38
	c-2.93,3.49-10.33,20.1-22.2,49.84c-8.45,24.01-15.29,36.02-20.52,36.02c-1.62-0.71-2.81-4.12-3.59-10.23
	c0.01-0.36,0.03-0.71,0.03-1.07c-0.07,0-0.11-0.04-0.17-0.06c-0.01-0.12-0.03-0.24-0.04-0.36v-0.84
	c3.77-23.38,11.73-42.51,23.87-57.37c7.26-6.49,10.89-10.54,10.89-12.14c0-0.77-0.28-1.6-0.84-2.51
	c-8.38-5.03-16.05-7.54-23.03-7.54c-3.35,0.07-5.03,0.35-5.03,0.84c-4.26,0-10.54,7.82-18.84,23.45
	c-5.38,13.47-8.17,25.76-8.38,36.85c0.28,7.75,0.7,14.31,1.26,19.68c-0.08,0.08-0.17,0.14-0.25,0.22c0.74,1.5,1.54,2.98,2.41,4.44
	c1.39,2.34,4.6,6.46,4.96,6.66c1.07,0.95,1.76,2.26,2.67,3.24c3.08,3.31,6.41,6.27,9.96,8.91c2.7,0.82,5.75,1.24,9.14,1.24
	C500.63,296.17,509.01,291.15,519.62,281.1z"/>
<path class="st2" d="M530.61,182.26h3.77c12.28-4.61,18.43-12,18.43-22.2v-3.35c-2.23-7.54-6.7-11.31-13.4-11.31h-3.77
	c-12.29,4.61-18.43,12.01-18.43,22.2v0.84C518.26,177.66,522.72,182.26,530.61,182.26z"/>
</svg>
